M48
; DRILL file KiCad 10.0.0 date 2026-04-28T16:29:08
; FORMAT={-:-/ absolute / inch / decimal}
; #@! TF.CreationDate,2026-04-28T16:29:08-04:00
; #@! TF.GenerationSoftware,Kicad,Pcbnew,10.0.0
; #@! TF.FileFunction,Plated,1,2,PTH
FMAT,2
INCH
; #@! TA.AperFunction,Plated,PTH,ViaDrill
T1C0.0079
; #@! TA.AperFunction,Plated,PTH,ComponentDrill
T2C0.0079
; #@! TA.AperFunction,Plated,PTH,ViaDrill
T3C0.0118
; #@! TA.AperFunction,Plated,PTH,ComponentDrill
T4C0.0236
; #@! TA.AperFunction,Plated,PTH,ComponentDrill
T5C0.0236
; #@! TA.AperFunction,Plated,PTH,ComponentDrill
T6C0.0315
; #@! TA.AperFunction,Plated,PTH,ComponentDrill
T7C0.0354
; #@! TA.AperFunction,Plated,PTH,ComponentDrill
T8C0.0394
; #@! TA.AperFunction,Plated,PTH,ComponentDrill
T9C0.0787
%
G90
G05
T1
X3.9154Y-3.1213
X3.9527Y-3.1587
X3.9527Y-3.198
X4.0019Y-3.1882
X4.2425Y-3.8185
X4.3433Y-3.1165
X4.3701Y-3.1693
X4.4238Y-3.7508
T2
X4.4687Y-2.1362
X4.4687Y-2.1913
X4.4963Y-2.1087
X4.4963Y-2.1638
X4.4963Y-2.2189
X4.5238Y-2.1362
X4.5238Y-2.1913
X4.5514Y-2.1087
X4.5514Y-2.1638
X4.5514Y-2.2189
X4.5789Y-2.1362
X4.5789Y-2.1913
T3
X3.8189Y-2.3228
X3.8976Y-5.1378
X3.9764Y-2.4606
X3.9764Y-4.6457
X3.9961Y-2.0439
X4.0354Y-4.5079
X4.0509Y-3.1726
X4.0748Y-4.0551
X4.0748Y-4.1929
X4.0748Y-4.7949
X4.0837Y-1.9094
X4.0886Y-2.7972
X4.0886Y-2.8346
X4.0886Y-2.872
X4.1862Y-3.9417
X4.2033Y-4.263
X4.2384Y-2.1598
X4.252Y-5.0787
X4.2717Y-4.4488
X4.2913Y-4.0354
X4.3796Y-4.6764
X4.4171Y-4.798
X4.4291Y-2.4213
X4.4882Y-3.2087
X4.4882Y-5.2146
X4.5069Y-5.1959
X4.626Y-4.7047
X4.6654Y-3.4646
X4.8031Y-4.5079
X4.9213Y-3.937
X5.0669Y-3.4134
X5.0787Y-5.2362
X5.2165Y-3.3858
T5
X3.9263Y-3.0398
X3.9263Y-3.3075
T6
X5.1969Y-3.9961
X5.1969Y-4.0748
T8
X5.2283Y-2.0213
X5.2283Y-2.1213
X5.2283Y-2.2213
X5.2283Y-2.3213
X5.2283Y-2.4213
X5.2283Y-2.5213
X5.2283Y-2.6213
X5.2283Y-2.7213
X5.2283Y-2.8213
X5.2283Y-2.9213
T9
X4.4882Y-5.315
X4.7244Y-5.315
T4
G00X3.9637Y-3.0087
M15
G01X3.9637Y-3.0362
M16
G05
G00X3.9637Y-3.311
M15
G01X3.9637Y-3.3386
M16
G05
G00X4.0031Y-3.0028
M15
G01X3.9637Y-3.0028
M16
G05
G00X4.0031Y-3.3445
M15
G01X3.9637Y-3.3445
M16
G05
T7
G00X3.8239Y-3.0035
M15
G01X3.7767Y-3.0035
M16
G05
G00X3.8239Y-3.3437
M15
G01X3.7767Y-3.3437
M16
G05
M30
